<svg width="69" height="132" viewBox="0 0 69 132" fill="none" xmlns="http://www.w3.org/2000/svg">
<path d="M53.3167 114.909C46.7429 108.886 40.7498 102.257 35.4166 95.1119C30.0616 87.8924 26.6827 81.617 27.1772 81.2577C27.6717 80.8983 31.9907 86.4092 37.8185 92.8379C43.629 99.2576 49.7667 105.374 56.207 111.161C60.2553 114.829 62.5301 116.849 63.7059 118.193L63.5867 116.051L63.1542 110.821C62.8496 107.473 62.5876 104.444 62.4094 101.89C62.0398 96.7849 62.0185 93.5776 62.5223 93.5024C63.026 93.4271 63.9757 96.498 65.0036 101.555C65.5163 104.077 66.0601 107.084 66.5743 110.462C66.8698 112.138 67.0497 113.93 67.2411 115.787C67.3249 116.725 67.4132 117.689 67.4558 118.702C67.4704 119.325 67.6665 122.135 65.9882 122.88C65.7887 122.983 65.607 123.11 65.392 123.202L64.8541 123.392C64.577 123.441 64.3526 123.481 64.1159 123.604C63.6276 123.69 63.1774 123.838 62.7311 123.93C61.8205 124.091 60.9496 124.244 60.0919 124.396C58.3764 124.698 56.7207 124.8 55.1512 124.927C52.0098 125.168 49.182 125.258 46.8029 125.269C42.0424 125.279 39.0827 124.93 39.0401 124.38C38.9975 123.829 41.875 123.172 46.5339 122.432C48.868 122.089 51.6291 121.697 54.7045 121.236C56.2221 120.969 57.8351 120.78 59.4737 120.504L60.0147 120.409C57.6832 118.72 55.4568 116.891 53.3477 114.931" fill="#2A2A2A"/>
<path d="M23.7123 75.8826C23.0603 76.3513 21.352 74.8429 19.9924 72.4566C18.6328 70.0704 16.6463 64.9782 17.3651 64.5793C18.084 64.1804 21.0749 68.5649 22.4338 70.8696C23.7927 73.1744 24.3776 75.4115 23.7123 75.8826Z" fill="#2A2A2A"/>
<path d="M14.5386 58.7375C13.9796 59.0402 12.5322 57.1592 11.4078 54.4866C10.2834 51.8139 8.76896 46.3119 9.38143 46.0814C9.99389 45.851 12.3832 50.913 13.5092 53.5173C14.6351 56.1217 15.113 58.4458 14.5455 58.7771" fill="#2A2A2A"/>
<path d="M7.85921 41.3834C7.41132 41.544 6.30082 39.4131 5.50324 36.5876C4.70565 33.762 3.75319 28.0521 4.23911 27.9528C4.72504 27.8535 6.34273 33.3237 7.16827 36.0763C7.99381 38.8288 8.3071 41.2227 7.86153 41.3965" fill="#2A2A2A"/>
<path d="M2.86171 16.8201C3.21064 19.7248 3.38266 22.0891 3.06596 22.145C2.74925 22.2008 2.07112 19.8985 1.71289 16.9411C1.49008 15.1254 1.36337 13.2992 1.33326 11.4702C1.22541 10.3725 1.31573 9.26428 1.59992 8.19849C1.92622 9.24304 2.11704 10.3252 2.1677 11.4183L2.8726 16.8046" fill="#2A2A2A"/>
</svg>
