<svg width="20" height="20" viewBox="0 0 20 20" fill="none" xmlns="http://www.w3.org/2000/svg">
<g clip-path="url(#clip0_1_289)">
<path d="M10.4455 12.5C11.8262 12.5 12.9455 11.3807 12.9455 10C12.9455 8.61929 11.8262 7.5 10.4455 7.5C9.06486 7.5 7.94561 8.61929 7.94561 10C7.94561 11.3807 9.06486 12.5 10.4455 12.5Z" fill="#CFCFCF"/>
<path fill-rule="evenodd" clip-rule="evenodd" d="M1.11007 10.5904C0.963209 10.2087 0.963335 9.78563 1.11042 9.40408C2.55455 5.65788 6.18896 3 10.4441 3C14.7014 3 18.3373 5.66051 19.78 9.40962C19.9268 9.79127 19.9267 10.2144 19.7796 10.5959C18.3355 14.3421 14.7011 17 10.4459 17C6.18864 17 2.55274 14.3395 1.11007 10.5904ZM14.4458 10C14.4458 12.2091 12.655 14 10.4459 14C8.23683 14 6.44603 12.2091 6.44603 10C6.44603 7.79086 8.23683 6 10.4459 6C12.655 6 14.4458 7.79086 14.4458 10Z" fill="#CFCFCF"/>
</g>
<defs>
<clipPath id="clip0_1_289">
<rect width="20" height="20" fill="white"/>
</clipPath>
</defs>
</svg>
