<svg width="25" height="24" viewBox="0 0 25 24" fill="none" xmlns="http://www.w3.org/2000/svg">
<g clip-path="url(#clip0_4308_985)">
<path fill-rule="evenodd" clip-rule="evenodd" d="M9.08334 6.75C9.08334 4.67893 10.7623 3 12.8333 3C14.9044 3 16.5833 4.67893 16.5833 6.75C16.5833 8.82107 14.9044 10.5 12.8333 10.5C10.7623 10.5 9.08334 8.82107 9.08334 6.75Z" fill="#CFCFCF"/>
<path fill-rule="evenodd" clip-rule="evenodd" d="M16.5833 9.75C16.5833 8.09315 17.9265 6.75 19.5833 6.75C21.2402 6.75 22.5833 8.09315 22.5833 9.75C22.5833 11.4069 21.2402 12.75 19.5833 12.75C17.9265 12.75 16.5833 11.4069 16.5833 9.75Z" fill="#CFCFCF"/>
<path fill-rule="evenodd" clip-rule="evenodd" d="M3.08334 9.75C3.08334 8.09315 4.42649 6.75 6.08334 6.75C7.7402 6.75 9.08334 8.09315 9.08334 9.75C9.08334 11.4069 7.7402 12.75 6.08334 12.75C4.42649 12.75 3.08334 11.4069 3.08334 9.75Z" fill="#CFCFCF"/>
<path fill-rule="evenodd" clip-rule="evenodd" d="M7.1432 15.1175C8.34118 13.2444 10.4417 12 12.8333 12C15.2253 12 17.326 13.2447 18.5239 15.1182C19.3521 16.4134 19.7104 17.9752 19.5423 19.4979C19.516 19.7359 19.3778 19.947 19.1701 20.0662C17.3028 21.1376 15.1384 21.75 12.8333 21.75C10.5283 21.75 8.36393 21.1376 6.49659 20.0662C6.28893 19.947 6.15064 19.7359 6.12438 19.4979C5.95628 17.9749 6.31475 16.4129 7.1432 15.1175Z" fill="#CFCFCF"/>
<path d="M5.91563 14.2537C5.90358 14.2722 5.89162 14.2907 5.87972 14.3093C4.91426 15.8189 4.47242 17.6167 4.60806 19.389C4.00001 19.2967 3.41004 19.1481 2.84377 18.9487L2.72881 18.9082C2.5191 18.8343 2.37257 18.6439 2.35493 18.4222L2.34527 18.3007C2.33736 18.2014 2.33334 18.1011 2.33334 18C2.33334 15.9851 3.92239 14.3414 5.91563 14.2537Z" fill="#CFCFCF"/>
<path d="M21.059 19.389C21.1946 17.617 20.753 15.8196 19.7879 14.3102C19.7758 14.2913 19.7636 14.2725 19.7514 14.2537C21.7445 14.3416 23.3333 15.9853 23.3333 18C23.3333 18.1011 23.3293 18.2014 23.3214 18.3007L23.3118 18.4222C23.2941 18.6439 23.1476 18.8343 22.9379 18.9082L22.8229 18.9487C22.2568 19.1481 21.6669 19.2966 21.059 19.389Z" fill="#CFCFCF"/>
</g>
<defs>
<clipPath id="clip0_4308_985">
<rect width="24" height="24" fill="white" transform="translate(0.833344)"/>
</clipPath>
</defs>
</svg>
