<svg width="19" height="20" viewBox="0 0 19 20" fill="none" xmlns="http://www.w3.org/2000/svg">
<path d="M16.8428 3.56641C16.9453 3.9435 17.0001 4.34029 17.0001 4.74986L17.0001 15.2499C17.0001 15.6594 16.9453 16.0562 16.8428 16.4333C17.8255 15.9406 18.5001 14.924 18.5001 13.7499L18.5001 6.24986C18.5001 5.0757 17.8255 4.0591 16.8428 3.56641Z" fill="#CFCFCF"/>
<path d="M9.50006 0.25C11.1569 0.25 12.5001 1.59315 12.5001 3.25L12.5001 16.75C12.5001 18.4069 11.1569 19.75 9.50006 19.75L3.50006 19.75C1.84321 19.75 0.50006 18.4069 0.50006 16.75L0.500061 3.25C0.500061 1.59315 1.84321 0.249999 3.50006 0.249999L9.50006 0.25Z" fill="#CFCFCF"/>
<path d="M14.0001 3.24986C14.0001 2.84029 13.9453 2.4435 13.8428 2.06641C14.8255 2.5591 15.5001 3.5757 15.5001 4.74986L15.5001 15.2499C15.5001 16.424 14.8255 17.4406 13.8428 17.9333C13.9453 17.5562 14.0001 17.1594 14.0001 16.7499L14.0001 3.24986Z" fill="#CFCFCF"/>
</svg>
